<?xml version="1.0" encoding="utf-8"?>
<!-- Generator: Adobe Illustrator 17.0.0, SVG Export Plug-In . SVG Version: 6.00 Build 0)  -->
<!DOCTYPE svg PUBLIC "-//W3C//DTD SVG 1.1//EN" "http://www.w3.org/Graphics/SVG/1.1/DTD/svg11.dtd">
<svg version="1.1" id="Capa_1" xmlns="http://www.w3.org/2000/svg" xmlns:xlink="http://www.w3.org/1999/xlink" x="0px" y="0px"
	 width="927.093px" height="930.093px" viewBox="-168.728 -57.726 927.093 930.093"
	 enable-background="new -168.728 -57.726 927.093 930.093" xml:space="preserve">
<g>
	<path d="M595.723,645.032H32.553v-514.34c0-8.99-7.287-16.277-16.277-16.277S0,121.702,0,130.691v530.617
		c0,8.988,7.287,16.277,16.277,16.277h579.447c8.99,0,16.277-7.289,16.277-16.277C612,652.319,604.713,645.032,595.723,645.032z"/>
	<path d="M46.808,604.544c0,0.9,0.728,1.628,1.628,1.628h515.128c0.9,0,1.628-0.728,1.628-1.628c0-0.898-0.728-1.628-1.628-1.628
		h-24.361c1.698-1.351,2.808-3.412,2.808-5.747v-88.657h21.553c0.9,0,1.628-0.728,1.628-1.628c0-0.898-0.728-1.628-1.628-1.628
		h-21.553V476.62c0-4.072-3.302-7.375-7.375-7.375H431.38c-4.072,0-7.375,3.303-7.375,7.375v28.637h-59.003v-75.432
		c0-4.072-3.303-7.375-7.375-7.375H254.372c-4.072,0-7.375,3.303-7.375,7.375v75.432h-59.003v-94.404h259.537l7.381,2.057
		l-11.195,31.28c-0.98,2.738-0.425,5.79,1.458,8.006c1.561,1.841,3.838,2.874,6.206,2.874c0.483,0,0.972-0.042,1.458-0.132
		l95.804-17.436c2.86-0.519,5.225-2.528,6.206-5.264c0.98-2.738,0.425-5.79-1.458-8.006l-11.35-13.379h21.523
		c0.9,0,1.628-0.728,1.628-1.628c0-0.898-0.728-1.628-1.628-1.628h-24.285l-48.879-57.619c-1.88-2.217-4.803-3.27-7.661-2.741
		c-2.861,0.519-5.226,2.528-6.206,5.264l-10.62,29.677l-182.173-50.737l-23.433-18.248h303.259c0.9,0,1.628-0.728,1.628-1.628
		c0-0.898-0.728-1.628-1.628-1.628H256.124l-114.05-88.81c-7.088-5.524-17.322-4.251-22.841,2.842
		c-5.524,7.092-4.25,17.318,2.842,22.841l81.067,63.126H48.436c-0.9,0-1.628,0.729-1.628,1.628c0,0.9,0.728,1.628,1.628,1.628
		h158.886l58.954,45.906c1.673,1.305,3.587,2.269,5.633,2.839l163.936,45.659h-247.85v-74.212c0-4.072-3.303-7.375-7.375-7.375
		H77.364c-4.072,0-7.375,3.303-7.375,7.375v74.212H48.436c-0.9,0-1.628,0.729-1.628,1.628c0,0.9,0.728,1.628,1.628,1.628h21.553
		v94.404H48.436c-0.9,0-1.628,0.729-1.628,1.628c0,0.9,0.728,1.628,1.628,1.628h21.553v88.657c0,2.336,1.11,4.396,2.808,5.747
		H48.436C47.536,602.916,46.808,603.645,46.808,604.544z M424.005,508.512v88.657c0,2.336,1.11,4.396,2.808,5.747h-64.616
		c1.698-1.351,2.808-3.412,2.808-5.747v-88.657H424.005z M187.995,597.169v-88.657h59.003v88.657c0,2.336,1.11,4.396,2.808,5.747
		h-64.616C186.885,601.565,187.995,599.505,187.995,597.169z"/>
	<path d="M48.436,215.533h515.128c0.9,0,1.628-0.728,1.628-1.628c0-0.898-0.728-1.628-1.628-1.628H48.436
		c-0.9,0-1.628,0.729-1.628,1.628C46.808,214.806,47.536,215.533,48.436,215.533z"/>
</g>
<circle fill="none" stroke="#000000" stroke-width="24" stroke-miterlimit="10" cx="296.5" cy="408.932" r="447"/>
</svg>
