<?xml version="1.0" encoding="utf-8"?>
<!-- Generator: Adobe Illustrator 17.0.0, SVG Export Plug-In . SVG Version: 6.00 Build 0)  -->
<!DOCTYPE svg PUBLIC "-//W3C//DTD SVG 1.1//EN" "http://www.w3.org/Graphics/SVG/1.1/DTD/svg11.dtd">
<svg version="1.1" id="Capa_1" xmlns="http://www.w3.org/2000/svg" xmlns:xlink="http://www.w3.org/1999/xlink" x="0px" y="0px"
	 width="927.093px" height="930.093px" viewBox="0 0 927.093 930.093" enable-background="new 0 0 927.093 930.093"
	 xml:space="preserve">
<circle fill="none" stroke="#000000" stroke-width="24" stroke-miterlimit="10" cx="296.5" cy="408.932" r="447"/>
<g>
	<path d="M531.632,635.27v91.123H43.209v-91.158c0-33.806,29.165-75.491,64.821-92.367l79.332-37.719L242.42,619.87l28.169-76.416
		c5.548,1.085,11.079,2.472,16.841,2.472c5.78,0,11.293-1.387,16.859-2.472l26.729,72.681l53.937-112.249l81.857,38.928
		C502.468,559.744,531.632,601.428,531.632,635.27z M287.447,503.868c69.694,0,126.192-86.73,126.192-166.222
		c0-79.563-56.48-121.764-126.192-121.764c-69.693,0-126.156,42.2-126.156,121.764C161.256,417.138,217.754,503.868,287.447,503.868
		z M475.97,302.755l-27.209-9.372c2.863-8.305,5.371-14.387,7.505-18.299c2.134-3.93,5.442-7.042,9.87-9.336
		c4.446-2.365,10.777-3.806,19.082-4.41c3.859-0.107,7.167-0.213,9.994-0.302c2.756-0.125,5.246-0.373,7.398-0.782
		c2.152-0.409,4.055-1.174,5.584-2.241c4.09-2.614,7.362-7.433,9.745-14.405c3.077-8.892,3.663-15.24,1.796-19.046
		c-0.978-2.668-2.952-4.873-5.993-6.58c-3.059-1.707-7.7-3.628-13.942-5.762c-7.06-2.205-12.36-3.503-15.898-3.984
		c-3.45-0.48-6.366-0.018-8.696,1.458c-2.49,1.849-4.979,5.673-7.576,11.541c0.036,0.8-0.196,1.921-0.694,3.343l-2.223,6.402
		l-27.191-9.336c4.321-12.555,8.678-21.749,13.089-27.582c4.446-5.815,9.407-9.354,14.938-10.67
		c6.349-1.529,12.911-1.618,19.615-0.267c6.687,1.352,14.725,3.646,24.097,6.864c20.949,7.22,33.522,15.934,37.737,26.231
		c3.77,9.052,2.952,21.358-2.436,37.025c-3.752,10.848-7.807,18.335-12.235,22.425c-4.428,4.055-9.905,6.722-16.432,7.967
		c-2.081,0.427-5.548,0.8-10.474,1.031c-4.855,0.231-8.518,0.427-10.937,0.694c-2.436,0.231-4.873,0.925-7.416,1.956
		c-3.148,0.943-5.228,2.401-6.295,4.339C479.58,293.205,477.962,296.886,475.97,302.755z M441.275,315.043l27.209,9.354
		l-10.101,29.361l-27.191-9.354L441.275,315.043z M108.759,297.046l-23.03,10.101c-3.094-7.042-5.104-12.431-6.064-16.219
		c-0.925-3.788-0.676-7.771,0.782-11.879c1.458-4.108,4.695-8.821,9.639-14.138c2.419-2.383,4.499-4.41,6.242-6.117
		c1.707-1.725,3.165-3.343,4.304-4.89c1.12-1.565,1.867-3.165,2.258-4.766c1.085-4.126,0.32-9.176-2.258-15.027
		c-3.326-7.558-6.704-12.004-10.19-13.32c-2.187-1.156-4.784-1.369-7.754-0.658c-2.97,0.694-7.078,2.223-12.377,4.553
		c-5.851,2.81-10.03,5.122-12.555,6.882c-2.525,1.778-4.108,3.788-4.748,6.118c-0.48,2.632,0.178,6.633,2.01,11.915
		c0.516,0.48,1.031,1.352,1.565,2.579l2.383,5.46l-23.03,10.119c-4.659-10.635-7.309-19.117-7.914-25.519
		c-0.622-6.366,0.462-11.595,3.237-15.738c3.201-4.748,7.345-8.661,12.466-11.773c5.104-3.094,11.63-6.366,19.58-9.905
		c17.73-7.789,30.997-9.639,39.817-5.548c7.771,3.557,14.565,11.986,20.38,25.235c4.055,9.23,5.869,16.432,5.424,21.678
		c-0.445,5.228-2.365,10.172-5.815,14.867c-1.103,1.547-3.13,3.859-6.135,6.882c-3.005,3.023-5.193,5.353-6.633,6.953
		c-1.423,1.601-2.596,3.503-3.592,5.691c-1.458,2.436-1.938,4.588-1.476,6.473C105.433,288.777,106.572,292.085,108.759,297.046z
		 M93.75,325.517l23.047-10.137l10.937,24.879l-23.047,10.083L93.75,325.517z M263.44,153.053l-25.911-12.68
		c3.859-7.914,7.096-13.693,9.71-17.339c2.596-3.61,6.295-6.313,10.972-8.091c4.695-1.814,11.204-2.472,19.526-2.027
		c3.877,0.373,7.202,0.676,9.977,0.96c2.774,0.231,5.282,0.285,7.487,0.107c2.205-0.142,4.144-0.694,5.851-1.494
		c4.428-2.152,8.269-6.509,11.488-13.124c4.126-8.483,5.548-14.743,4.09-18.797c-0.605-2.756-2.347-5.211-5.157-7.291
		c-2.81-2.045-7.202-4.553-13.16-7.469c-6.758-3.059-11.879-4.962-15.294-5.922c-3.397-0.871-6.349-0.8-8.856,0.373
		c-2.685,1.547-5.655,5.068-8.945,10.635c-0.036,0.8-0.409,1.849-1.085,3.254l-3.005,6.118L235.2,67.604
		c5.851-11.968,11.346-20.575,16.432-25.804c5.157-5.282,10.528-8.198,16.183-8.785c6.527-0.729,13.053,0,19.544,2.134
		c6.491,2.187,14.209,5.477,23.172,9.816c19.953,9.799,31.406,20.042,34.375,30.765c2.596,9.407,0.32,21.607-7.007,36.581
		c-5.068,10.314-10.03,17.268-14.956,20.771c-4.89,3.486-10.67,5.495-17.339,5.94c-2.17,0.178-5.673,0.107-10.581-0.302
		c-4.89-0.391-8.536-0.605-10.972-0.676c-2.454-0.089-4.997,0.356-7.647,1.12c-3.201,0.462-5.477,1.689-6.793,3.503
		C268.241,143.966,266.214,147.469,263.44,153.053z M227.428,161.002l25.946,12.662l-13.693,27.991l-25.946-12.697L227.428,161.002z
		"/>
</g>
</svg>
