<?xml version="1.0" encoding="utf-8"?>
<!-- Generator: Adobe Illustrator 17.0.0, SVG Export Plug-In . SVG Version: 6.00 Build 0)  -->
<!DOCTYPE svg PUBLIC "-//W3C//DTD SVG 1.1//EN" "http://www.w3.org/Graphics/SVG/1.1/DTD/svg11.dtd">
<svg version="1.1" id="Capa_1" xmlns="http://www.w3.org/2000/svg" xmlns:xlink="http://www.w3.org/1999/xlink" x="0px" y="0px"
	 width="927.093px" height="930.093px" viewBox="0 0 927.093 930.093" enable-background="new 0 0 927.093 930.093"
	 xml:space="preserve">
<circle fill="none" stroke="#000000" stroke-width="24" stroke-miterlimit="10" cx="296.5" cy="408.932" r="447"/>
<g>
	<g>
		<path d="M95.149,267.773l48.161,8.281c-3.658-11.917-6.082-24.417-7.092-37.322l44.773,6.441v27.357h117.464v-19.345h20.737
			v19.345h117.441v-26.662l37.389-5.79c-0.404,9.067-1.549,18.672-3.322,28.367l37.21-7.002
			c-7.945-100.161-46.299-235.825-205.595-235.825c-22.622,0-48.992,2.783-60.437,7.945c-11.491,5.139-13.555,16.877-20.961,19.368
			c-7.72,2.603-18.672,1.549-25.472,4.848C89.337,108.881,93.04,233.459,93.04,233.459L95.149,267.773z M285.416,259.469h-91.386
			v-46.523h91.386V259.469z M423.572,259.469h-91.341v-46.523h91.341V259.469z M136.825,208.884
			c47.219-3.209,100.542-40.396,104.694-92.194c59.764,49.486,144.462,51.909,215.021,58.216
			c8.82,4.129,15.238,21.881,17.056,45.401l-36.963,5.723v-26.123H319.17v27.178h-20.737v-27.178H180.969v25.472l-45.379-6.531
			C136.017,215.549,136.443,212.25,136.825,208.884z"/>
		<path d="M584.439,504.72c0-24.44-9.83-45.76-24.462-57.946V272.306l-266.212,42.416L27.463,272.306v169.867
			C9.262,452.968-3.44,476.847-3.44,504.72c0,27.851,12.702,51.73,30.903,62.525v139.412l266.302,42.439l266.212-42.394V562.667
			C574.632,550.435,584.439,529.138,584.439,504.72z M281.668,722.704L51.633,686.055V573.102
			c27.716-1.795,49.845-31.599,49.845-68.382c0-36.806-22.106-66.609-49.845-68.427V300.606l230.035,36.671V722.704z
			 M535.829,686.055l-230.013,36.648V337.277l230.013-36.671v48.61v87.256c-1.324-0.135-2.514-0.471-3.86-0.471
			c-28.973,0-52.47,30.791-52.47,68.719c0,37.95,23.497,68.741,52.47,68.741c1.347,0,2.536-0.382,3.86-0.494V686.055z"/>
	</g>
</g>
</svg>
